<svg width="46" height="67" viewBox="0 0 46 67" fill="none" xmlns="http://www.w3.org/2000/svg">
<path d="M45 58.2983L45 7.8387C45 4.15369 41.1493 1.73473 37.8296 3.33433L30.629 6.80388C28.1759 7.98592 25.2314 6.90107 24.1315 4.40999C22.8987 1.61785 19.413 0.66158 16.928 2.43379L13.8061 4.66021C12.1707 5.82654 9.96703 5.79467 8.36602 4.58152C5.34142 2.28966 1 4.447 1 8.24184L1 57.8393C1 61.4118 5.20701 63.3218 7.89647 60.9703C9.63722 59.4484 12.2852 59.6385 13.7906 61.3935L15.4983 63.3842C17.235 65.4088 20.2553 65.7135 22.3615 64.0767L27.2469 60.2799C28.8585 59.0275 31.0696 58.8803 32.8329 59.9081L37.4821 62.618C40.8154 64.5609 45 62.1564 45 58.2983Z" fill="#F89FE1" stroke="#294339" stroke-width="2" stroke-miterlimit="1.41421" stroke-linejoin="round"/>
</svg>
