<svg width="113" height="89" viewBox="0 0 113 89" fill="none" xmlns="http://www.w3.org/2000/svg">
<path d="M89.2043 1.6044L4.09281 41.5277C0.422727 43.2492 0.219256 48.3933 3.7419 50.3993L12.6907 55.4954C15.6563 57.1842 16.0959 61.282 13.556 63.5615L11.8811 65.0646C9.03183 67.6217 9.99592 72.3013 13.6239 73.524L17.7084 74.9005C20.3278 75.7833 21.6451 78.7057 20.5718 81.2529C18.8803 85.2676 23.029 89.2544 26.9732 87.4043L109.351 48.7631C113.095 47.0072 112.504 41.5094 108.473 40.5892C105.479 39.9058 104.118 36.4183 105.858 33.888L108.156 30.5461C110.087 27.7369 108.703 23.8607 105.428 22.9111L97.6365 20.6515C95.011 19.8901 93.4837 17.1614 94.2076 14.5253L96.1492 7.45519C97.2791 3.3405 93.0674 -0.207682 89.2043 1.6044Z" fill="#F89FE1" stroke="#294339" stroke-width="2" stroke-miterlimit="1.41421" stroke-linejoin="round"/>
</svg>
