<svg width="100" height="48" viewBox="0 0 100 48" fill="none" xmlns="http://www.w3.org/2000/svg">
<path d="M8.9021 47L91.9469 47C96.0098 47 98.3764 42.4111 96.0206 39.1009L91.6612 32.9753C89.6747 30.184 91.0203 26.2669 94.3028 25.2856L94.7285 25.1584C98.4105 24.0577 99.526 19.3876 96.739 16.7417L94.5857 14.6975C92.7802 12.9834 92.8239 10.0926 94.6804 8.43379C97.5962 5.82844 95.7533 1.00001 91.843 1.00001L9.38871 0.999999C5.67678 0.999999 4.06965 5.70025 7.00449 7.97295C9.1895 9.66499 8.96574 13.0312 6.57598 14.4192L4.0382 15.8931C1.07574 17.6136 0.681872 21.7364 3.26497 23.9868L7.82967 27.9634C9.90314 29.7698 10.1287 32.9116 8.33455 34.9956L5.11286 38.7378C2.32252 41.979 4.62525 47 8.9021 47Z" fill="#F89FE1" stroke="#294339" stroke-width="2" stroke-miterlimit="1.41421" stroke-linejoin="round"/>
</svg>
