<svg width="108" height="37" viewBox="0 0 108 37" fill="none" xmlns="http://www.w3.org/2000/svg">
<path d="M98.2319 1H8.71423C4.27184 1 2.08487 6.40471 5.27718 9.49404L6.53286 10.7092C8.85378 12.9553 7.71169 16.8829 4.54828 17.5342L4.22094 17.6016C0.82794 18.3001 -0.0198851 22.7562 2.87952 24.652L4.05872 25.423C5.89189 26.6216 5.8549 29.3201 3.98955 30.468C1.42395 32.0468 2.54288 36 5.55535 36H99.9443C102.822 36 103.784 32.1514 101.245 30.7973C99.1709 29.6912 99.3367 26.6653 101.519 25.7923L103.742 24.903C106.719 23.7122 107.047 19.628 104.297 17.9783L101.523 16.314C98.847 14.7082 98.5926 10.9259 101.03 8.97614C104.336 6.33137 102.466 1 98.2319 1Z" fill="#F89FE1" stroke="#294339" stroke-width="2" stroke-miterlimit="1.41421" stroke-linejoin="round"/>
</svg>
