<svg width="111" height="103" viewBox="0 0 111 103" fill="none" xmlns="http://www.w3.org/2000/svg">
<path d="M77.7794 2.68649L3.77562 60.663C0.58451 63.163 1.53866 68.2219 5.42119 69.3877L15.2842 72.3494C18.5528 73.3309 19.8993 77.2261 17.9346 80.0166L16.639 81.8568C14.4351 84.9872 16.4231 89.3319 20.2327 89.7107L24.5218 90.1371C27.2724 90.4106 29.2109 92.9636 28.7356 95.6866C27.9865 99.9782 32.923 102.934 36.3524 100.247L107.979 44.1328C111.234 41.5828 109.427 36.3572 105.292 36.3636C102.221 36.3682 100.114 33.2742 101.242 30.4185L102.733 26.6468C103.986 23.4761 101.768 20.0087 98.3644 19.8169L90.2645 19.3603C87.5352 19.2065 85.4353 16.8893 85.5503 14.1581L85.8585 6.83265C86.0379 2.5694 81.1383 0.0549823 77.7794 2.68649Z" fill="#F89FE1" stroke="#294339" stroke-width="2" stroke-miterlimit="1.41421" stroke-linejoin="round"/>
</svg>
